<?xml version="1.0" encoding="utf-8"?>
<!-- Generator: Adobe Illustrator 16.0.0, SVG Export Plug-In . SVG Version: 6.00 Build 0)  -->
<!DOCTYPE svg PUBLIC "-//W3C//DTD SVG 1.1//EN" "http://www.w3.org/Graphics/SVG/1.1/DTD/svg11.dtd">
<svg version="1.1" id="Layer_1" xmlns="http://www.w3.org/2000/svg" xmlns:xlink="http://www.w3.org/1999/xlink" x="0px" y="0px"
	 width="650px" height="210px" viewBox="0 0 650 210" enable-background="new 0 0 650 210" xml:space="preserve">
<g>
	<path fill="#003D71" d="M33.33,45.181c0,0,17.763-10.127,35.522-20.255c4.442-2.526,8.884-5.054,13.05-7.425
		c2.111-1.133,4.128-2.268,6.082-3.273c1.948-1.014,3.788-1.977,5.488-2.861c1.698-0.893,3.283-1.654,4.673-2.361
		c1.39-0.702,2.607-1.304,3.621-1.782c2.024-0.96,3.181-1.509,3.181-1.509l0.082,0.149c0,0-1.08,0.685-2.974,1.883
		c-0.945,0.601-2.104,1.311-3.441,2.11c-1.338,0.799-2.83,1.731-4.49,2.69c-1.658,0.961-3.453,2.006-5.353,3.109
		c-1.894,1.115-3.932,2.215-6.018,3.394c-4.226,2.255-8.736,4.661-13.247,7.066c-18.046,9.607-36.094,19.213-36.094,19.213
		L33.33,45.181z"/>
	<path fill="#003D71" d="M176.561,45.329c0,0-18.046-9.605-36.093-19.213c-4.509-2.405-9.02-4.812-13.248-7.066
		c-2.083-1.179-4.121-2.278-6.015-3.394c-1.899-1.104-3.695-2.148-5.354-3.109c-1.659-0.959-3.151-1.892-4.49-2.69
		c-1.336-0.8-2.495-1.51-3.439-2.11c-1.895-1.198-2.975-1.883-2.975-1.883l0.082-0.149c0,0,1.156,0.549,3.181,1.509
		c1.012,0.479,2.232,1.08,3.621,1.782c1.39,0.707,2.975,1.469,4.673,2.361c1.7,0.885,3.54,1.848,5.488,2.861
		c1.954,1.006,3.972,2.141,6.082,3.273c4.165,2.371,8.607,4.898,13.05,7.425c17.76,10.128,35.521,20.255,35.521,20.255
		L176.561,45.329z"/>
	<path fill="#003D71" d="M210.743,27.943c-1.464-1.471-2.196-3.41-2.196-5.816c0-2.405,0.732-4.345,2.196-5.815
		c1.464-1.472,3.403-2.208,5.816-2.208c1.972,0,3.715,0.501,5.23,1.502l0.442,3.111h-0.198c-0.325-1.265-0.979-2.239-1.966-2.925
		c-0.985-0.684-2.155-1.025-3.509-1.025c-1.928,0-3.47,0.669-4.625,2.008c-1.154,1.339-1.732,3.112-1.732,5.32
		c0,2.206,0.57,3.984,1.711,5.331c1.141,1.346,2.645,2.041,4.514,2.085c1.648,0,3.025-0.448,4.128-1.347
		c1.192-0.971,1.913-2.552,2.163-4.745h0.177l-0.265,3.466c-1.339,2.192-3.407,3.288-6.203,3.288
		C214.102,30.158,212.207,29.415,210.743,27.943z"/>
	<path fill="#003D71" d="M227.817,29.644c0.382,0,0.709-0.136,0.981-0.408c0.271-0.272,0.415-0.601,0.43-0.982V15.892
		c0-0.353-0.14-0.65-0.419-0.894c-0.28-0.243-0.61-0.364-0.992-0.364h-0.266l-0.022-0.221h6.468c0.455,0,0.952-0.045,1.489-0.133
		s0.916-0.177,1.138-0.265v2.781h-0.222v-0.398c0-0.352-0.121-0.653-0.364-0.904c-0.243-0.249-0.534-0.382-0.872-0.396h-4.502v6.82
		h3.729c0.294-0.015,0.545-0.125,0.751-0.332c0.206-0.205,0.309-0.463,0.309-0.771v-0.311h0.222v3.489h-0.222v-0.331
		c0-0.295-0.099-0.545-0.298-0.751c-0.198-0.207-0.445-0.316-0.739-0.332h-3.752v6.602h3.155c1.09,0,1.921-0.244,2.495-0.729
		c0.573-0.486,1.053-1.206,1.434-2.162h0.223l-1.281,3.575h-9.16v-0.221H227.817z"/>
	<path fill="#003D71" d="M258.32,14.634c-0.367,0-0.683,0.129-0.948,0.386c-0.265,0.258-0.405,0.57-0.418,0.938v11.39
		c0,0.853,0.05,1.663,0.153,2.429l0.044,0.396h-0.197l-12.03-12.847v10.992c0,0.369,0.131,0.682,0.396,0.938
		c0.265,0.259,0.581,0.387,0.95,0.387h0.419v0.221h-4.548v-0.221h0.419c0.368,0,0.685-0.128,0.95-0.387
		c0.265-0.257,0.397-0.577,0.397-0.96V16.842c0-0.898-0.052-1.7-0.155-2.406l-0.045-0.354h0.223l12.029,12.848V15.98
		c-0.015-0.383-0.155-0.703-0.419-0.961c-0.266-0.257-0.582-0.386-0.95-0.386h-0.419v-0.221h4.547v0.221H258.32z"/>
	<path fill="#003D71" d="M274.921,16.378c0-0.354-0.126-0.658-0.375-0.916c-0.251-0.258-0.546-0.395-0.884-0.409h-4.194v13.223
		c0.016,0.382,0.159,0.705,0.431,0.971c0.273,0.265,0.6,0.397,0.982,0.397h0.286v0.221h-4.833v-0.221h0.287
		c0.382,0,0.71-0.133,0.982-0.397c0.272-0.266,0.415-0.581,0.43-0.949V15.053h-4.194c-0.353,0.015-0.649,0.151-0.894,0.409
		c-0.243,0.258-0.363,0.562-0.363,0.916v0.374l-0.222,0.022v-2.781c0.222,0.088,0.604,0.177,1.148,0.265
		c0.543,0.088,1.044,0.133,1.5,0.133h7.462c0.721,0,1.32-0.055,1.798-0.166c0.479-0.109,0.769-0.187,0.872-0.231v2.781l-0.22-0.022
		V16.378z"/>
	<path fill="#003D71" d="M283.64,15.098h-1.413v13.155c0,0.382,0.136,0.71,0.409,0.982c0.271,0.272,0.607,0.408,1.004,0.408h0.264
		l0.022,0.221h-4.834v-0.221h0.288c0.382,0,0.709-0.133,0.98-0.397c0.273-0.266,0.417-0.589,0.431-0.971V16.024
		c-0.014-0.383-0.157-0.71-0.431-0.982c-0.271-0.271-0.599-0.408-0.98-0.408h-0.288v-0.221h5.959c1.341,0,2.393,0.372,3.157,1.114
		c0.765,0.744,1.148,1.707,1.148,2.892s-0.364,2.207-1.093,3.068c-0.729,0.861-1.615,1.291-2.66,1.291
		c0.221,0.104,0.482,0.306,0.784,0.607c0.301,0.302,0.569,0.614,0.805,0.938c1.267,1.811,2.09,2.925,2.472,3.345
		c0.385,0.419,0.655,0.707,0.817,0.86c0.162,0.155,0.339,0.306,0.529,0.452c0.192,0.148,0.383,0.266,0.575,0.354
		c0.426,0.207,0.884,0.31,1.367,0.31v0.221h-1.214c-0.632,0-1.221-0.114-1.766-0.343c-0.544-0.228-0.952-0.463-1.226-0.706
		c-0.271-0.243-0.508-0.478-0.706-0.707c-0.198-0.228-0.747-0.988-1.645-2.284c-0.897-1.295-1.42-2.033-1.566-2.218
		c-0.147-0.184-0.302-0.363-0.463-0.541c-0.472-0.499-0.944-0.75-1.413-0.75v-0.221c0.117,0.014,0.272,0.021,0.464,0.021
		c0.189,0,0.426-0.008,0.706-0.021c1.823-0.045,2.973-0.81,3.443-2.296c0.089-0.294,0.132-0.57,0.132-0.827c0-0.258,0-0.424,0-0.497
		c-0.029-0.985-0.286-1.78-0.772-2.384s-1.141-0.928-1.965-0.972C284.609,15.104,284.169,15.098,283.64,15.098z"/>
	<path fill="#003D71" d="M297.169,16.322c1.575-1.479,3.616-2.219,6.125-2.219c2.51,0,4.551,0.739,6.126,2.219
		c1.573,1.479,2.362,3.418,2.362,5.816s-0.789,4.336-2.362,5.816c-1.575,1.479-3.616,2.218-6.126,2.218
		c-2.509,0-4.55-0.739-6.125-2.218c-1.575-1.48-2.361-3.418-2.361-5.816S295.594,17.801,297.169,16.322z M298.373,27.48
		c1.242,1.354,2.88,2.03,4.911,2.03c2.03,0,3.666-0.677,4.91-2.03s1.864-3.135,1.864-5.342s-0.62-3.987-1.864-5.342
		c-1.244-1.354-2.88-2.03-4.91-2.03c-2.031,0-3.669,0.677-4.911,2.03c-1.244,1.354-1.866,3.135-1.866,5.342
		S297.129,26.127,298.373,27.48z"/>
	<path fill="#003D71" d="M324.187,29.644c0.382,0,0.71-0.136,0.981-0.408c0.273-0.272,0.417-0.601,0.43-0.982V15.892
		c0-0.353-0.138-0.65-0.418-0.894c-0.279-0.243-0.611-0.364-0.993-0.364h-0.265l-0.023-0.221h4.481c0.455,0,0.952-0.045,1.49-0.133
		c0.537-0.088,0.917-0.177,1.137-0.265v2.781h-0.22v-0.398c0-0.352-0.122-0.653-0.365-0.904c-0.243-0.249-0.533-0.382-0.872-0.396
		h-2.515v6.82h4.192c0.295-0.015,0.545-0.125,0.751-0.332c0.206-0.205,0.309-0.463,0.309-0.771v-0.311h0.222v3.489h-0.222v-0.331
		c0-0.295-0.1-0.545-0.299-0.751c-0.198-0.207-0.444-0.316-0.738-0.332h-4.215v6.602h4.701c1.088,0,1.918-0.244,2.493-0.729
		c0.574-0.486,1.052-1.206,1.435-2.162h0.224l-1.282,3.575h-10.707v-0.221H324.187z"/>
	<path fill="#003D71" d="M339.527,28.958c-0.045-0.205-0.066-0.602-0.066-1.19s0.109-1.215,0.331-1.877h0.2
		c-0.017,0.162-0.023,0.323-0.023,0.485c0,0.897,0.271,1.645,0.816,2.241c0.544,0.596,1.266,0.894,2.164,0.894
		c0.927,0,1.688-0.279,2.283-0.839c0.595-0.559,0.894-1.261,0.894-2.107c0-0.846-0.284-1.535-0.859-2.063l-4.239-3.93
		c-0.794-0.736-1.193-1.627-1.193-2.671s0.351-1.939,1.049-2.682c0.7-0.743,1.646-1.115,2.839-1.115c0.558,0,1.19,0.074,1.896,0.222
		h0.864v2.715h-0.2c0-0.692-0.24-1.244-0.718-1.656c-0.479-0.411-1.094-0.617-1.843-0.617c-0.753,0-1.38,0.249-1.888,0.75
		c-0.509,0.5-0.762,1.125-0.762,1.876s0.296,1.398,0.882,1.942l4.35,4.018c0.734,0.678,1.103,1.604,1.103,2.781
		s-0.375,2.146-1.124,2.903c-0.751,0.757-1.752,1.136-3.003,1.136c-0.649,0-1.334-0.099-2.063-0.299
		C340.487,29.677,339.924,29.371,339.527,28.958z"/>
	<path fill="#003D71" d="M362.526,18.674c0,0.647-0.131,1.25-0.396,1.81c-0.487,1.045-1.34,1.773-2.562,2.186
		c-0.426,0.146-0.795,0.221-1.104,0.221c-0.913,0-1.702-0.17-2.363-0.509V22.16c1.074,0.235,2.067,0.118,2.979-0.354
		c0.812-0.41,1.362-1.088,1.657-2.029c0.09-0.295,0.131-0.574,0.131-0.84c0-0.264,0-0.426,0-0.485c-0.029-1.03-0.3-1.85-0.813-2.461
		c-0.518-0.611-1.238-0.916-2.163-0.916h-2.541v13.178c0.018,0.382,0.159,0.71,0.432,0.982c0.271,0.272,0.6,0.408,0.98,0.408h0.29
		v0.221h-4.836v-0.221h0.289c0.381,0,0.708-0.136,0.98-0.408s0.416-0.601,0.432-0.982V15.914c-0.045-0.368-0.198-0.673-0.464-0.916
		c-0.265-0.243-0.583-0.364-0.948-0.364h-0.267l-0.022-0.221h5.762c1.413,0,2.521,0.378,3.334,1.137
		C362.121,16.308,362.526,17.349,362.526,18.674z"/>
	<path fill="#003D71" d="M367.341,29.644c0.381,0,0.71-0.136,0.98-0.408c0.272-0.272,0.415-0.601,0.431-0.982V16.002
		c-0.016-0.382-0.158-0.706-0.431-0.971c-0.271-0.265-0.6-0.397-0.98-0.397h-0.289v-0.221h4.835v0.221h-0.289
		c-0.382,0-0.708,0.133-0.98,0.397c-0.271,0.265-0.414,0.589-0.431,0.971v12.251c0,0.382,0.14,0.71,0.42,0.982
		c0.279,0.272,0.609,0.408,0.991,0.408h0.289v0.221h-4.835v-0.221H367.341z M369.48,13l-0.152-0.154
		c1.116-1.206,2.044-2.17,2.777-2.892c0.397,0.396,0.7,0.787,0.905,1.17C372.069,11.669,370.892,12.293,369.48,13z"/>
	<path fill="#003D71" d="M381.268,15.098h-1.415v13.155c0,0.382,0.138,0.71,0.411,0.982c0.271,0.272,0.606,0.408,1.004,0.408h0.264
		l0.021,0.221h-4.834v-0.221h0.288c0.383,0,0.71-0.133,0.983-0.397c0.271-0.266,0.416-0.589,0.43-0.971V16.024
		c-0.014-0.383-0.158-0.71-0.43-0.982c-0.273-0.271-0.601-0.408-0.983-0.408h-0.288v-0.221h5.961c1.339,0,2.391,0.372,3.155,1.114
		c0.766,0.744,1.149,1.707,1.149,2.892s-0.365,2.207-1.094,3.068s-1.614,1.291-2.658,1.291c0.22,0.104,0.481,0.306,0.78,0.607
		c0.304,0.302,0.573,0.614,0.808,0.938c1.267,1.811,2.089,2.925,2.473,3.345c0.383,0.419,0.654,0.707,0.817,0.86
		c0.162,0.155,0.339,0.306,0.529,0.452c0.189,0.148,0.382,0.266,0.574,0.354c0.424,0.207,0.884,0.31,1.367,0.31v0.221h-1.214
		c-0.631,0-1.222-0.114-1.765-0.343c-0.546-0.228-0.953-0.463-1.228-0.706c-0.271-0.243-0.506-0.478-0.705-0.707
		c-0.198-0.228-0.746-0.988-1.644-2.284c-0.896-1.295-1.42-2.033-1.567-2.218c-0.146-0.184-0.302-0.363-0.463-0.541
		c-0.473-0.499-0.942-0.75-1.414-0.75v-0.221c0.117,0.014,0.272,0.021,0.464,0.021c0.19,0,0.426-0.008,0.706-0.021
		c1.825-0.045,2.972-0.81,3.444-2.296c0.089-0.294,0.131-0.57,0.131-0.827c0-0.258,0-0.424,0-0.497
		c-0.029-0.985-0.284-1.78-0.771-2.384c-0.484-0.604-1.14-0.928-1.965-0.972C382.237,15.104,381.796,15.098,381.268,15.098z"/>
	<path fill="#003D71" d="M393.497,29.644c0.38,0,0.708-0.136,0.98-0.408c0.271-0.272,0.416-0.601,0.432-0.982V16.002
		c-0.016-0.382-0.16-0.706-0.432-0.971c-0.272-0.265-0.601-0.397-0.98-0.397h-0.289v-0.221h4.835v0.221h-0.287
		c-0.383,0-0.71,0.133-0.983,0.397c-0.271,0.265-0.415,0.589-0.43,0.971v12.251c0,0.382,0.142,0.71,0.418,0.982
		c0.279,0.272,0.612,0.408,0.995,0.408h0.287v0.221h-4.835v-0.221H393.497z"/>
	<path fill="#003D71" d="M414.554,16.378c0-0.354-0.127-0.658-0.376-0.916c-0.251-0.258-0.546-0.395-0.884-0.409h-4.195v13.223
		c0.017,0.382,0.159,0.705,0.433,0.971c0.273,0.265,0.6,0.397,0.981,0.397h0.288v0.221h-4.834v-0.221h0.288
		c0.38,0,0.708-0.133,0.98-0.397c0.271-0.266,0.416-0.581,0.431-0.949V15.053h-4.194c-0.352,0.015-0.651,0.151-0.892,0.409
		c-0.245,0.258-0.366,0.562-0.366,0.916v0.374l-0.223,0.022v-2.781c0.223,0.088,0.604,0.177,1.148,0.265
		c0.546,0.088,1.046,0.133,1.502,0.133h7.462c0.72,0,1.32-0.055,1.798-0.166c0.479-0.109,0.769-0.187,0.871-0.231v2.781
		l-0.219-0.022V16.378z"/>
	<path fill="#003D71" d="M431.659,29.644h0.176v0.221h-4.968v-0.221h0.2c0.312,0,0.541-0.101,0.695-0.299
		c0.156-0.198,0.23-0.387,0.23-0.562c0-0.178-0.028-0.354-0.086-0.529l-1.414-3.752h-5.96l-1.479,3.774
		c-0.059,0.176-0.087,0.35-0.087,0.518c0,0.17,0.076,0.354,0.232,0.552c0.152,0.198,0.383,0.299,0.693,0.299h0.199v0.221h-4.438
		v-0.221h0.2c0.367,0,0.729-0.117,1.082-0.354c0.354-0.235,0.64-0.581,0.859-1.037l4.989-11.875c0.544-1.192,0.818-1.95,0.818-2.274
		h0.198l5.914,14.149c0.205,0.456,0.487,0.802,0.838,1.037C430.91,29.526,431.275,29.644,431.659,29.644z M420.798,23.838h5.431
		l-2.647-7.086L420.798,23.838z"/>
	<path fill="#003D71" d="M76.065,91.875c0,6.618-1.781,11.786-5.34,15.501c-3.562,3.713-8.594,5.568-15.097,5.568
		c-4.388,0-8.342-0.923-11.863-2.771c-3.521-1.847-6.255-4.368-8.197-7.563c-1.944-3.193-2.916-6.763-2.916-10.707
		c0-3.945,0.962-7.515,2.887-10.708c1.925-3.195,4.58-5.706,7.967-7.535c3.387-1.827,7.159-2.742,11.315-2.742
		c2.616,0,5.281,0.356,7.994,1.067c2.714,0.713,4.976,1.666,6.784,2.858l1.156,8.14h-0.521c-0.809-3.233-2.676-5.764-5.601-7.591
		c-2.926-1.829-6.178-2.742-9.756-2.742c-5.12,0-9.381,1.819-12.787,5.455s-5.109,8.207-5.109,13.711
		c0,5.503,1.762,10.113,5.282,13.826c3.522,3.714,8.129,5.571,13.826,5.571c5.695,0,10.343-1.847,13.942-5.541
		c3.598-3.697,5.396-8.756,5.396-15.185h0.578C76.045,90.951,76.065,91.412,76.065,91.875z"/>
	<path fill="#003D71" d="M117.919,111.56h0.462v0.578h-12.989v-0.578h0.52c0.809,0,1.414-0.26,1.817-0.778
		c0.405-0.521,0.607-1.011,0.607-1.473s-0.077-0.924-0.231-1.387l-3.695-9.812H88.823l-3.868,9.871
		c-0.154,0.463-0.231,0.914-0.231,1.355c0,0.445,0.203,0.925,0.606,1.445c0.404,0.519,1.012,0.778,1.818,0.778h0.52v0.578H76.064
		v-0.578h0.52c0.962,0,1.905-0.308,2.829-0.922c0.924-0.616,1.675-1.521,2.252-2.716l13.047-31.058
		c1.423-3.118,2.136-5.1,2.136-5.946h0.521l15.471,37.004c0.537,1.194,1.27,2.1,2.194,2.716
		C115.956,111.252,116.918,111.56,117.919,111.56z M89.516,96.376h14.201l-6.927-18.53L89.516,96.376z"/>
	<path fill="#003D71" d="M121.21,109.771c-0.117-0.539-0.174-1.577-0.174-3.118c0-1.539,0.289-3.174,0.866-4.906h0.52
		c-0.039,0.424-0.059,0.847-0.059,1.27c0,2.349,0.713,4.302,2.138,5.86c1.422,1.559,3.308,2.338,5.657,2.338
		c2.424,0,4.416-0.732,5.975-2.194s2.338-3.3,2.338-5.513s-0.751-4.013-2.252-5.397l-11.083-10.277
		c-2.079-1.923-3.118-4.252-3.118-6.983c0-2.733,0.914-5.071,2.742-7.015c1.827-1.942,4.302-2.916,7.419-2.916
		c1.461,0,3.117,0.193,4.964,0.578h2.252v7.101h-0.52c0-1.809-0.626-3.251-1.877-4.329s-2.857-1.617-4.819-1.617
		c-1.964,0-3.609,0.655-4.937,1.963c-1.327,1.309-1.991,2.942-1.991,4.907c0,1.963,0.769,3.656,2.309,5.08l11.372,10.506
		c1.925,1.771,2.888,4.195,2.888,7.274s-0.982,5.609-2.944,7.591c-1.964,1.983-4.581,2.973-7.851,2.973
		c-1.694,0-3.494-0.258-5.399-0.778C123.721,111.646,122.248,110.85,121.21,109.771z"/>
	<path fill="#003D71" d="M186.501,111.56h0.462v0.578h-12.99v-0.578h0.521c0.809,0,1.414-0.26,1.818-0.778
		c0.404-0.521,0.606-1.011,0.606-1.473s-0.078-0.924-0.232-1.387l-3.693-9.812h-15.587l-3.867,9.871
		c-0.154,0.463-0.231,0.914-0.231,1.355c0,0.445,0.202,0.925,0.605,1.445c0.404,0.519,1.01,0.778,1.819,0.778h0.519v0.578h-11.603
		v-0.578h0.519c0.962,0,1.905-0.308,2.828-0.922c0.924-0.616,1.675-1.521,2.253-2.716l13.046-31.058
		c1.424-3.118,2.137-5.1,2.137-5.946h0.521l15.471,37.004c0.537,1.194,1.27,2.1,2.192,2.716
		C184.538,111.252,185.5,111.56,186.501,111.56z M158.098,96.376h14.201l-6.927-18.53L158.098,96.376z"/>
	<path fill="#003D71" d="M238.717,77.298c3.829,3.714,5.744,8.593,5.744,14.633c0,6.044-1.915,10.923-5.744,14.636
		c-3.83,3.713-8.823,5.571-14.98,5.571h-19.57v-0.578h0.75c1.001,0,1.856-0.354,2.569-1.067c0.711-0.711,1.087-1.569,1.126-2.57
		V75.594c0-0.924-0.375-1.703-1.126-2.338c-0.751-0.636-1.607-0.951-2.569-0.951h-0.692l-0.058-0.577h19.57
		C229.894,71.728,234.887,73.584,238.717,77.298z M212.363,73.458v36.948h11.373c3.233,0,6.09-0.771,8.572-2.31
		s4.406-3.705,5.773-6.495c1.365-2.791,2.05-6.013,2.05-9.671c0-5.541-1.511-10.004-4.532-13.392
		c-3.021-3.387-6.977-5.081-11.863-5.081H212.363z"/>
	<path fill="#003D71" d="M256.353,76.72c4.117-3.867,9.457-5.802,16.02-5.802c6.561,0,11.901,1.935,16.02,5.802
		c4.118,3.868,6.177,8.939,6.177,15.211c0,6.274-2.059,11.345-6.177,15.212c-4.118,3.868-9.459,5.802-16.02,5.802
		c-6.562,0-11.902-1.934-16.02-5.802c-4.119-3.867-6.178-8.938-6.178-15.212C250.175,85.659,252.233,80.588,256.353,76.72z
		 M259.498,105.902c3.252,3.541,7.534,5.312,12.845,5.312c5.312,0,9.593-1.771,12.845-5.312c3.252-3.54,4.879-8.197,4.879-13.972
		c0-5.771-1.627-10.427-4.879-13.97c-3.252-3.54-7.533-5.311-12.845-5.311c-5.311,0-9.593,1.771-12.845,5.311
		c-3.252,3.543-4.878,8.198-4.878,13.97C254.62,97.705,256.246,102.362,259.498,105.902z"/>
	<path fill="#003D71" d="M357.263,91.875c0,6.618-1.781,11.786-5.34,15.501c-3.562,3.713-8.594,5.568-15.098,5.568
		c-4.387,0-8.342-0.923-11.861-2.771c-3.522-1.847-6.256-4.368-8.198-7.563c-1.945-3.193-2.917-6.763-2.917-10.707
		c0-3.945,0.963-7.515,2.888-10.708c1.924-3.195,4.58-5.706,7.967-7.535c3.386-1.827,7.158-2.742,11.314-2.742
		c2.619,0,5.281,0.356,7.996,1.067c2.712,0.713,4.973,1.666,6.781,2.858l1.156,8.14h-0.518c-0.81-3.233-2.677-5.764-5.602-7.591
		c-2.927-1.829-6.177-2.742-9.757-2.742c-5.119,0-9.38,1.819-12.786,5.455s-5.109,8.207-5.109,13.711
		c0,5.503,1.761,10.113,5.282,13.826c3.521,3.714,8.13,5.571,13.825,5.571s10.344-1.847,13.942-5.541
		c3.599-3.697,5.397-8.756,5.397-15.185h0.576C357.243,90.951,357.263,91.412,357.263,91.875z"/>
	<path fill="#003D71" d="M399.116,111.56h0.463v0.578h-12.99v-0.578h0.521c0.809,0,1.413-0.26,1.816-0.778
		c0.404-0.521,0.608-1.011,0.608-1.473s-0.078-0.924-0.232-1.387l-3.694-9.812h-15.587l-3.868,9.871
		c-0.154,0.463-0.229,0.914-0.229,1.355c0,0.445,0.2,0.925,0.604,1.445c0.405,0.519,1.013,0.778,1.82,0.778h0.518v0.578h-11.603
		v-0.578h0.521c0.962,0,1.904-0.308,2.828-0.922c0.921-0.616,1.674-1.521,2.251-2.716l13.046-31.058
		c1.425-3.118,2.137-5.1,2.137-5.946h0.521l15.47,37.004c0.538,1.194,1.271,2.1,2.193,2.716
		C397.154,111.252,398.115,111.56,399.116,111.56z M370.713,96.376h14.202l-6.928-18.53L370.713,96.376z"/>
	<path fill="#003D71" d="M450.841,111.56h0.924v0.578h-12.527v-0.52h0.864c0.656,0,1.214-0.251,1.675-0.751
		c0.464-0.499,0.653-1.076,0.578-1.731l-2.596-29.038l-12.125,26.959c-1.079,2.348-1.732,4.311-1.963,5.888h-0.578l-14.777-32.038
		l-2.484,28.229c-0.076,0.615,0.117,1.183,0.578,1.703c0.461,0.519,1.021,0.779,1.675,0.779h0.864v0.52h-11.199v-0.578h0.927
		c1.076,0,2.008-0.326,2.798-0.98c0.789-0.654,1.261-1.539,1.414-2.657l4.331-37.004h0.577l16.105,34.811l15.759-34.811h0.521
		l4.444,37.004c0.154,1.118,0.636,2.003,1.444,2.657C448.877,111.233,449.803,111.56,450.841,111.56z"/>
	<path fill="#003D71" d="M456.843,111.56c1.002,0,1.857-0.354,2.569-1.067c0.714-0.711,1.087-1.569,1.128-2.57V75.884
		c-0.041-1.002-0.414-1.849-1.128-2.54c-0.712-0.693-1.567-1.039-2.569-1.039h-0.75v-0.577h12.645v0.577h-0.752
		c-1.002,0-1.855,0.346-2.567,1.039c-0.713,0.691-1.089,1.538-1.127,2.54v32.038c0,1.001,0.365,1.859,1.097,2.57
		c0.73,0.713,1.596,1.067,2.598,1.067h0.752v0.578h-12.645v-0.578H456.843z"/>
	<path fill="#003D71" d="M517.056,72.305c-0.962,0-1.788,0.336-2.48,1.01s-1.061,1.492-1.097,2.453v29.789
		c0,2.231,0.134,4.349,0.404,6.35l0.113,1.038h-0.518l-31.464-33.596v28.748c0,0.961,0.346,1.78,1.04,2.453
		c0.692,0.674,1.519,1.01,2.483,1.01h1.094v0.578h-11.893v-0.578h1.099c0.962,0,1.79-0.336,2.482-1.01
		c0.691-0.673,1.039-1.51,1.039-2.512V78.077c0-2.348-0.136-4.445-0.404-6.293l-0.115-0.922h0.577l31.463,33.596V75.826
		c-0.039-1.001-0.403-1.838-1.096-2.512c-0.693-0.674-1.522-1.01-2.485-1.01h-1.095v-0.577h11.892v0.577H517.056z"/>
	<path fill="#003D71" d="M551.695,111.56c0.999,0,1.855-0.354,2.566-1.067c0.712-0.711,1.087-1.549,1.126-2.512V93.028h-23.611
		v14.952c0,1.001,0.365,1.848,1.098,2.54c0.729,0.693,1.596,1.039,2.598,1.039h0.751v0.578h-12.644v-0.578h0.752
		c1,0,1.854-0.346,2.568-1.039c0.713-0.692,1.088-1.539,1.127-2.54V75.884c-0.039-1.002-0.414-1.849-1.127-2.54
		c-0.715-0.693-1.568-1.039-2.568-1.039h-0.752v-0.577h12.644v0.577h-0.751c-1.002,0-1.857,0.346-2.568,1.039
		c-0.712,0.691-1.088,1.538-1.127,2.54v15.412h23.611V75.884c-0.039-1.387-0.653-2.426-1.847-3.119
		c-0.576-0.307-1.192-0.46-1.846-0.46h-0.752v-0.577h12.644v0.577h-0.751c-1,0-1.857,0.355-2.57,1.066
		c-0.713,0.714-1.087,1.569-1.125,2.568v32.041c0.038,1.001,0.412,1.848,1.125,2.54c0.713,0.693,1.57,1.039,2.57,1.039h0.751v0.578
		h-12.644v-0.578H551.695z"/>
	<path fill="#003D71" d="M574.381,76.72c4.12-3.867,9.458-5.802,16.021-5.802c6.562,0,11.902,1.935,16.021,5.802
		c4.116,3.868,6.175,8.939,6.175,15.211c0,6.274-2.059,11.345-6.175,15.212c-4.119,3.868-9.46,5.802-16.021,5.802
		c-6.562,0-11.9-1.934-16.021-5.802c-4.119-3.867-6.177-8.938-6.177-15.212C568.204,85.659,570.262,80.588,574.381,76.72z
		 M577.529,105.902c3.252,3.541,7.533,5.312,12.842,5.312c5.312,0,9.595-1.771,12.847-5.312c3.252-3.54,4.876-8.197,4.876-13.972
		c0-5.771-1.624-10.427-4.876-13.97c-3.252-3.54-7.534-5.311-12.847-5.311c-5.309,0-9.59,1.771-12.842,5.311
		c-3.256,3.543-4.879,8.198-4.879,13.97C572.65,97.705,574.273,102.362,577.529,105.902z"/>
	<path fill-rule="evenodd" clip-rule="evenodd" fill="#003D71" d="M539.122,168.355c-2.579,1.922-5.123,3.102-7.84,3.856
		c-1.214,0.34-2.537,0.593-3.778,0.5c-2.596-0.191-4.084-2.435-3.547-5.008c0.072-0.341,0.156-0.688,0.286-1.015
		c1.63-4.092,3.978-7.671,7.575-10.318c1.965-1.444,4.194-2.068,6.62-1.853c1.301,0.116,2.495,0.545,3.486,1.479
		c1.037,0.978,1.977,1.973,1.807,3.76c-0.404,0.022-0.852,0.147-1.242,0.045c-0.301-0.074-0.575-0.396-0.776-0.671
		c-0.68-0.927-1.101-2.169-2.492-2.251c-1.86-0.115-3.763-0.374-5.441,0.785c-0.862,0.597-1.836,1.111-2.529,1.873
		c-2.056,2.266-3.768,4.793-4.749,7.714c-0.7,2.094,0.679,3.662,2.748,3.045c2.795-0.833,5.592-1.725,8.023-3.449
		c1.411-1.003,2.467-2.135,2.418-4.009c-0.014-0.444,0.151-0.912,0.32-1.334c0.066-0.168,0.396-0.36,0.555-0.328
		c0.304,0.065,0.778,0.246,0.819,0.449c0.154,0.784,0.317,1.62,0.192,2.391c-0.259,1.565-0.045,3.034,0.543,4.463
		c0.929,2.274,3.542,2.991,5.499,1.466c0.623-0.488,1.163-1.165,1.555-1.857c1.047-1.834,1.841-3.768,2.06-5.915
		c0.043-0.425,0.523-0.807,0.969-1.453c0.553,1.795,0.911,3.262,1.462,4.649c0.474,1.187,1.118,2.314,1.803,3.393
		c0.288,0.457,0.857,0.773,1.347,1.062c0.877,0.509,1.766,0.046,1.733-0.903c-0.061-1.877-0.197-3.728-1.4-5.335
		c-0.552-0.736-1.005-1.603-1.279-2.481c-0.574-1.841,0.772-3.252,2.752-2.807c2.848,0.643,5.704,1.316,8.472,2.233
		c3.612,1.198,4.809,3.83,3.636,7.469c-0.213,0.662-0.557,1.288-0.889,1.906c-0.468,0.872-0.133,1.621,0.398,2.264
		c0.575,0.701,1.508,0.937,2.228,0.489c1.874-1.173,3.694-2.448,5.422-3.824c0.451-0.364,0.568-1.239,0.699-1.903
		c0.481-2.351,1.426-4.428,3.148-6.156c1.062-1.064,2.287-1.594,3.743-1.63c2.228-0.059,3.519,1.748,2.636,3.778
		c-0.357,0.834-0.901,1.66-1.562,2.287c-1.511,1.439-3.144,2.749-4.762,4.14c-0.076,0.711,0.406,1.014,1.009,1.121
		c1.296,0.23,2.561,0.114,3.772-0.455c2.535-1.196,5.077-2.379,7.629-3.543c0.841-0.387,1.695-0.799,2.589-1.027
		c0.936-0.244,1.927,0.35,2.21,1.279c0.235,0.768,0.341,1.593,0.41,2.397c0.418,4.705,2.82,7.256,7.56,7.608
		c2.902,0.213,5.831,0.345,8.757-0.026c1.616-0.202,3.262-0.244,4.89-0.205c0.583,0.014,1.146,0.483,2.012,0.878
		c-2.18,1.387-4.287,1.436-6.332,1.515c-3.036,0.123-6.082,0.074-9.125,0.044c-0.931-0.01-1.886-0.086-2.78-0.326
		c-4.32-1.185-6.384-4.427-7.484-8.466c-0.175-0.657-0.157-1.372-0.228-2.035c-1.64-0.252-2.764,0.6-3.972,1.276
		c-2.135,1.197-4.228,2.414-6.765,2.774c-1.798,0.258-3.471,0.301-5.146-0.39c-0.536-0.223-1.084-0.421-1.735-0.678
		c-1.571,1.006-3.117,2.053-4.715,3.01c-2.009,1.202-4.872,0.712-6.424-0.957c-1.131-1.217-1.194-2.508-0.386-3.848
		c0.68-1.125,1.176-2.264,1.255-3.597c0.073-1.326-0.397-2.416-1.577-2.873c-2.804-1.083-5.607-2.279-8.849-2.28
		c-0.375,1.439,0.396,2.394,0.931,3.348c0.943,1.692,1.274,3.511,1.318,5.393c0.053,2.654-1.691,3.821-4.188,2.833
		c-1.217-0.478-2.296-1.163-3.016-2.313c-0.367-0.588-0.782-1.153-1.247-1.826c-1.283,0.447-1.674,1.65-2.322,2.513
		c-1.063,1.415-2.402,2.078-4.08,2.455c-1.86,0.42-3.218-0.234-4.357-1.554C540.65,170.521,540.011,169.548,539.122,168.355z
		 M586.203,161.677c-2.232,0.227-3.283,1.113-4.062,2.261c-0.481,0.703-1.265,1.494-0.262,2.838
		C583.23,165.228,584.914,164.1,586.203,161.677z"/>
	<path fill-rule="evenodd" clip-rule="evenodd" fill="#003D71" d="M378.515,137.876c-1.896,0.013-4.446,0.074-6.968,0.775
		c-4.223,1.17-8.073,3.11-11.649,5.543c-2.405,1.634-4.582,3.622-6.83,5.486c-2.274,1.888-3.862,4.37-5.661,6.672
		c-1.121,1.43-1.516,3.145-1.857,4.861c-1.004,5.054-0.182,9.647,2.915,13.953c2.424,3.374,5.519,5.507,9.226,7.231
		c6.157,2.867,12.648,4.06,19.278,4.912c4.053,0.517,8.111,1.032,12.134,1.745c3.233,0.572,6.454,1.073,9.747,1.069
		c0.454-0.003,0.95,0.064,1.342,0.267c0.236,0.122,0.408,0.557,0.425,0.857c0.014,0.307-0.118,0.753-0.345,0.899
		c-0.364,0.242-0.872,0.428-1.297,0.395c-2.103-0.167-4.251-0.18-6.274-0.684c-5.249-1.293-10.604-1.74-15.931-2.414
		c-6.752-0.853-13.407-2.065-19.474-5.408c-0.815-0.445-1.71-0.774-2.593-1.068c-3.14-1.048-5.369-3.222-7.278-5.8
		c-1.742-2.352-3.56-4.636-4.048-7.677c-0.698-4.381-0.471-8.575,1.582-12.639c2.753-5.462,6.637-9.815,11.747-13.185
		c4.132-2.73,8.507-4.883,13.175-6.484c4.779-1.634,9.682-1.69,14.556-0.886c2.411,0.396,4.633,1.652,6.612,3.144
		c2.06,1.553,3.954,3.276,5.598,5.297c2.037,2.508,2.812,5.346,2.614,8.499c-0.163,2.604-1.384,4.646-4.7,5.258
		c-1.262,0.23-2.543,0.407-3.819,0.586c-1.705,0.235-3.173-0.537-4.672-1.157c-0.152-0.063-0.335-0.445-0.277-0.557
		c0.143-0.272,0.438-0.693,0.645-0.675c0.803,0.064,1.599,0.286,2.4,0.426c2.122,0.368,4.188,0.183,6.194-0.606
		c1.712-0.671,2.512-1.831,2.491-3.77c-0.032-2.561-0.663-4.783-2.262-6.836c-2.175-2.807-4.569-5.265-7.846-6.799
		C384.771,137.866,382.026,137.629,378.515,137.876z"/>
	<path fill-rule="evenodd" clip-rule="evenodd" fill="#003D71" d="M511.472,158.185c-0.319-0.642-0.58-1.284-0.941-1.867
		c-1.533-2.491-3.021-5.016-4.66-7.432c-2.185-3.217-4.842-5.952-8.244-7.986c-1.782-1.062-3.259-0.391-3.615,1.555
		c-0.161,0.896-0.111,1.845-0.049,2.763c0.038,0.57,0.345,1.128,0.374,1.698c0.014,0.274-0.269,0.694-0.531,0.828
		c-0.254,0.135-0.672,0.043-0.988-0.046c-0.195-0.058-0.39-0.278-0.488-0.475c-1.178-2.275-0.537-6.203,1.317-7.819
		c0.912-0.791,1.93-1.097,3.229-0.896c2.734,0.437,4.661,2.071,6.412,3.976c1.108,1.206,2.118,2.503,3.077,3.829
		c2.049,2.842,4.035,5.723,6.049,8.588c0.195,0.284,0.391,0.573,0.537,0.801c1.41-0.217,1.967-1.103,2.584-1.933
		c3.611-4.872,8.539-7.855,14.166-9.824c1.365-0.479,2.764-0.49,4.149-0.144c0.385,0.098,0.702,0.457,1.094,0.727
		c-0.314,0.284-0.464,0.543-0.636,0.56c-6.695,0.617-11.772,4.18-16.153,8.935c-1.323,1.438-3.168,2.488-3.716,4.763
		c3.748,8.002,6.982,16.395,11.751,24.069c1.538,2.48,2.738,5.176,4.742,7.345c2.206,2.396,4.393,4.815,7.149,6.626
		c0.146,0.097,0.156,0.405,0.324,0.872c-0.579,0.023-1.163,0.216-1.562,0.026c-2.357-1.115-4.426-2.691-6.028-4.719
		c-1.588-2.008-2.911-4.226-4.32-6.373c-2.958-4.507-5.405-9.296-7.817-14.098c-1.724-3.45-3.256-6.998-4.881-10.491
		c-0.193-0.411-0.422-0.804-0.772-1.468c-0.533,0.464-1.034,0.736-1.307,1.16c-3.917,6.111-7.379,12.47-10.201,19.163
		c-0.993,2.365-1.986,4.741-2.836,7.158c-1.365,3.886-2.039,7.92-2.247,12.028c-0.062,1.269-0.09,2.543-0.152,4.202
		c-0.779-0.39-1.504-0.524-1.605-0.849c-0.267-0.86-0.405-1.813-0.336-2.71c0.47-5.976,1.925-11.743,4.111-17.3
		c2.36-5.979,4.88-11.896,8.292-17.386C508.339,163.466,509.873,160.849,511.472,158.185z"/>
	<path fill-rule="evenodd" clip-rule="evenodd" fill="#003D71" d="M408.209,165.514c-1.488,0.514-2.784,0.967-4.084,1.405
		c-0.594,0.197-1.168,0.181-1.53-0.425c-0.378-0.62-0.072-1.912,0.568-2.15c0.864-0.32,1.781-0.517,2.68-0.755
		c1.651-0.44,2.513-1.405,2.662-3.215c0.365-4.535,0.839-9.068,1.367-13.589c0.254-2.198,0.608-4.394,1.127-6.542
		c0.497-2.061,1.582-3.893,2.944-5.528c1.505-1.801,3.365-1.821,4.588,0.139c0.916,1.468,1.833,3.098,2.128,4.765
		c0.644,3.661,1.204,7.386,0.611,11.141c-0.929,5.854-4.061,10.07-9.429,12.607c-0.418,0.198-0.821,0.428-1.277,0.665
		c-1.134,3.355-0.342,6.459,1.15,9.455c0.587,1.176,1.891,1.743,2.964,1.048c3.518-2.276,7.228-4.458,7.835-9.24
		c0.056-0.442,0.178-0.965,0.465-1.261c0.271-0.275,0.805-0.396,1.216-0.385c0.179,0.007,0.487,0.521,0.48,0.799
		c-0.002,0.69-0.119,1.389-0.267,2.066c-0.531,2.431-0.419,4.871-0.153,7.314c0.022,0.2,0.248,0.376,0.543,0.798
		c0.517-0.062,1.21-0.034,1.814-0.247c0.761-0.268,1.459-0.735,2.182-1.116c1.848-0.976,3.227-2.315,3.53-4.5
		c0.035-0.231,0.035-0.532,0.177-0.668c0.299-0.281,0.657-0.573,1.034-0.664c0.147-0.034,0.628,0.498,0.601,0.73
		c-0.381,3.268,1.305,5.855,2.706,8.546c0.834,1.599,1.817,2.992,3.625,3.619c0.392,0.136,0.7,0.505,1.271,0.938
		c-0.631,0.151-0.976,0.353-1.242,0.279c-2.465-0.695-4.372-2.146-5.657-4.381c-0.639-1.103-1.289-2.194-2.042-3.482
		c-0.961,0.534-1.742,0.966-2.523,1.403c-1.018,0.57-1.983,1.265-3.057,1.699c-2.604,1.053-4.515,0.032-5.323-2.747
		c-0.126-0.442-0.196-0.902-0.352-1.632c-0.594,0.35-1.078,0.566-1.473,0.89c-1.18,0.955-2.242,2.071-3.498,2.91
		c-2.517,1.69-4.634,1.182-6.234-1.393c-1.194-1.917-1.847-4.029-1.98-6.289C408.299,167.602,408.263,166.685,408.209,165.514z
		 M411.121,161.556c1.058-0.682,1.694-1.174,2.403-1.537c2.685-1.394,4.03-3.729,4.919-6.508c1.51-4.718,1.036-9.472,0.331-14.202
		c-0.155-1.042-1.068-2.04-1.798-2.923c-0.708-0.847-2.21-0.621-2.659,0.389c-0.516,1.162-0.841,2.41-1.229,3.631
		c-1.549,4.825-1.499,9.906-2.274,14.854C410.521,157.117,410.209,159.155,411.121,161.556z"/>
	<path fill-rule="evenodd" clip-rule="evenodd" fill="#003D71" d="M456.258,173.574c-0.056,0.973-0.629,1.131-1.226,1.021
		c-1.373-0.253-2.729-0.602-4.1-0.882c-0.45-0.094-0.935-0.192-1.379-0.126c-0.618,0.089-1.044,0.5-1.114,1.168
		c-0.14,1.412,0.837,3.045,2.078,3.242c2.696,0.424,5.359,0.475,7.834-1.017c0.843-0.508,1.547-1.03,1.675-2.084
		c0.039-0.349,0.127-0.693,0.229-1.026c0.698-2.344,2.281-3.627,4.655-3.228c2.982,0.502,5.919,1.296,8.295,3.408
		c1.472,1.311,2.271,2.96,2.63,4.832c0.345,1.807-0.747,3.087-2.605,3.447c-3.373,0.654-6.484-0.273-9.571-1.435
		c-0.106-0.04-0.242-0.078-0.31-0.161c-1.657-2.194-3.559-1.852-5.843-0.937c-1.571,0.623-3.462,0.727-5.188,0.625
		c-3.431-0.198-6.211-2.452-5.996-6.342c0.105-1.885,2.263-3.766,4.127-3.27C452.555,171.379,454.667,172.097,456.258,173.574z
		 M462.908,173.515c-0.767,1.071-0.74,2.039-0.284,2.855c0.494,0.891,1.104,2.046,1.936,2.362c2.156,0.82,4.398,1.583,6.791,1.339
		c0.711-0.072,1.518-0.27,1.652-1.024c0.113-0.618,0.026-1.513-0.357-1.938C469.997,174.183,466.805,172.659,462.908,173.515z"/>
	<path fill-rule="evenodd" clip-rule="evenodd" fill="#003D71" d="M441.674,168.489c-3.641-1.243-6.881-2.312-8.007-6.405
		c1.18-0.449,2.045,0.029,2.805,0.719c1.7,1.559,3.369,3.164,5.043,4.756C441.581,167.621,441.562,167.784,441.674,168.489z"/>
	<path fill-rule="evenodd" clip-rule="evenodd" fill="#003D71" d="M572.779,155.653c-0.757,0.093-1.202,0.226-1.633,0.188
		c-1.163-0.108-2.307-0.341-3.363,0.469c-0.23,0.179-0.735,0.228-0.996,0.103c-0.494-0.231-1.035-0.559-1.308-1.002
		c-0.183-0.287-0.065-0.931,0.146-1.272c0.775-1.25,1.608-1.584,2.963-1.125c1.1,0.375,2.157,0.891,3.185,1.437
		C572.123,154.632,572.324,155.09,572.779,155.653z"/>
	<path fill="#003D71" d="M319.396,138.533c0,0-4.655,0.075-12.804,0.208c-8.15,0.167-19.79,0.189-33.76,0.328
		c-6.983,0.056-14.551,0.118-22.553,0.183c-8.005,0.091-16.442,0.021-25.175,0.039c-17.46-0.052-36.086-0.106-54.711-0.163
		c-74.502-0.298-149.003-0.595-149.003-0.595v-0.169c0,0,74.501-0.297,149.003-0.597c18.625-0.055,37.251-0.109,54.711-0.163
		c8.732,0.019,17.17-0.05,25.175,0.039c8.002,0.065,15.569,0.128,22.553,0.185c13.97,0.138,25.609,0.161,33.76,0.329
		c8.148,0.13,12.804,0.207,12.804,0.207V138.533z"/>
	<path fill="#003D71" d="M176.602,45.171c0,0,7.062-0.077,19.423-0.207c12.359-0.168,30.018-0.191,51.205-0.329
		c10.594-0.056,22.07-0.119,34.209-0.184c12.138-0.014,24.939-0.027,38.184-0.04c26.482,0.054,54.733,0.107,82.985,0.164
		c113.001,0.298,226.002,0.596,226.002,0.596v0.169c0,0-113.001,0.296-226.002,0.595c-28.252,0.056-56.503,0.111-82.985,0.164
		c-13.244-0.013-26.046-0.026-38.184-0.04c-12.139-0.064-23.615-0.128-34.209-0.184c-21.188-0.138-38.846-0.161-51.205-0.328
		c-12.36-0.132-19.423-0.207-19.423-0.207V45.171z"/>
</g>
</svg>
